<?xml version="1.0" encoding="UTF-8" standalone="no"?>
<!DOCTYPE svg PUBLIC "-//W3C//DTD SVG 1.1//EN"
 "http://www.w3.org/Graphics/SVG/1.1/DTD/svg11.dtd">
<!-- Generated by graphviz version 12.2.1 (0)
 -->
<!-- Title: ADD Pages: 1 -->
<svg width="566pt" height="312pt"
 viewBox="0.00 0.00 566.00 311.75" xmlns="http://www.w3.org/2000/svg" xmlns:xlink="http://www.w3.org/1999/xlink">
<g id="graph0" class="graph" transform="scale(1 1) rotate(0) translate(4 307.75)">
<title>ADD</title>
<polygon fill="white" stroke="none" points="-4,4 -4,-307.75 562,-307.75 562,4 -4,4"/>
<!-- n0 -->
<g id="node1" class="node">
<title>n0</title>
<ellipse fill="none" stroke="black" cx="279" cy="-285.75" rx="27.53" ry="18"/>
<text text-anchor="middle" x="279" y="-281.07" font-family="Times,serif" font-size="14.00">s_0</text>
</g>
<!-- n1 -->
<g id="node2" class="node">
<title>n1</title>
<ellipse fill="none" stroke="black" cx="190" cy="-196.5" rx="27.53" ry="18"/>
<text text-anchor="middle" x="190" y="-191.82" font-family="Times,serif" font-size="14.00">s_1</text>
</g>
<!-- n0&#45;&gt;n1 -->
<g id="edge1" class="edge">
<title>n0&#45;&gt;n1</title>
<path fill="none" stroke="black" d="M264.3,-270.34C250.26,-256.58 228.89,-235.63 212.67,-219.72"/>
<polygon fill="black" stroke="black" points="215.39,-217.49 205.8,-212.99 210.49,-222.49 215.39,-217.49"/>
<text text-anchor="middle" x="246.97" y="-236.45" font-family="Times,serif" font-size="14.00">1</text>
</g>
<!-- n2 -->
<g id="node3" class="node">
<title>n2</title>
<ellipse fill="none" stroke="black" cx="350" cy="-196.5" rx="27.53" ry="18"/>
<text text-anchor="middle" x="350" y="-191.82" font-family="Times,serif" font-size="14.00">s_1</text>
</g>
<!-- n0&#45;&gt;n2 -->
<g id="edge2" class="edge">
<title>n0&#45;&gt;n2</title>
<path fill="none" stroke="black" stroke-dasharray="5,2" d="M291.37,-269.55C302.09,-256.37 317.81,-237.06 330.27,-221.74"/>
<polygon fill="black" stroke="black" points="332.98,-223.96 336.58,-213.99 327.55,-219.54 332.98,-223.96"/>
<text text-anchor="middle" x="325.36" y="-236.45" font-family="Times,serif" font-size="14.00">0</text>
</g>
<!-- n3 -->
<g id="node4" class="node">
<title>n3</title>
<ellipse fill="none" stroke="black" cx="99" cy="-107.25" rx="27.53" ry="18"/>
<text text-anchor="middle" x="99" y="-102.58" font-family="Times,serif" font-size="14.00">s_2</text>
</g>
<!-- n1&#45;&gt;n3 -->
<g id="edge3" class="edge">
<title>n1&#45;&gt;n3</title>
<path fill="none" stroke="black" d="M174.97,-181.09C160.62,-167.33 138.76,-146.38 122.18,-130.47"/>
<polygon fill="black" stroke="black" points="124.78,-128.12 115.14,-123.73 119.94,-133.17 124.78,-128.12"/>
<text text-anchor="middle" x="157.15" y="-147.2" font-family="Times,serif" font-size="14.00">1</text>
</g>
<!-- n4 -->
<g id="node5" class="node">
<title>n4</title>
<ellipse fill="none" stroke="black" cx="190" cy="-107.25" rx="27.53" ry="18"/>
<text text-anchor="middle" x="190" y="-102.58" font-family="Times,serif" font-size="14.00">s_2</text>
</g>
<!-- n1&#45;&gt;n4 -->
<g id="edge4" class="edge">
<title>n1&#45;&gt;n4</title>
<path fill="none" stroke="black" stroke-dasharray="5,2" d="M190,-178.26C190,-166.43 190,-150.45 190,-136.75"/>
<polygon fill="black" stroke="black" points="193.5,-136.97 190,-126.97 186.5,-136.97 193.5,-136.97"/>
<text text-anchor="middle" x="194.5" y="-147.2" font-family="Times,serif" font-size="14.00">0</text>
</g>
<!-- n9 -->
<g id="node10" class="node">
<title>n9</title>
<ellipse fill="none" stroke="black" cx="350" cy="-107.25" rx="27.53" ry="18"/>
<text text-anchor="middle" x="350" y="-102.58" font-family="Times,serif" font-size="14.00">s_2</text>
</g>
<!-- n2&#45;&gt;n9 -->
<g id="edge9" class="edge">
<title>n2&#45;&gt;n9</title>
<path fill="none" stroke="black" d="M350,-178.26C350,-166.43 350,-150.45 350,-136.75"/>
<polygon fill="black" stroke="black" points="353.5,-136.97 350,-126.97 346.5,-136.97 353.5,-136.97"/>
<text text-anchor="middle" x="354.5" y="-147.2" font-family="Times,serif" font-size="14.00">1</text>
</g>
<!-- n10 -->
<g id="node11" class="node">
<title>n10</title>
<ellipse fill="none" stroke="black" cx="459" cy="-107.25" rx="27.53" ry="18"/>
<text text-anchor="middle" x="459" y="-102.58" font-family="Times,serif" font-size="14.00">s_2</text>
</g>
<!-- n2&#45;&gt;n10 -->
<g id="edge10" class="edge">
<title>n2&#45;&gt;n10</title>
<path fill="none" stroke="black" stroke-dasharray="5,2" d="M367.03,-181.87C384.79,-167.65 412.83,-145.2 433.29,-128.83"/>
<polygon fill="black" stroke="black" points="435.29,-131.71 440.91,-122.73 430.91,-126.25 435.29,-131.71"/>
<text text-anchor="middle" x="418.76" y="-147.2" font-family="Times,serif" font-size="14.00">0</text>
</g>
<!-- n5 -->
<g id="node6" class="node">
<title>n5</title>
<polygon fill="none" stroke="black" points="54,-36 0,-36 0,0 54,0 54,-36"/>
<text text-anchor="middle" x="27" y="-13.32" font-family="Times,serif" font-size="14.00">7</text>
</g>
<!-- n3&#45;&gt;n5 -->
<g id="edge5" class="edge">
<title>n3&#45;&gt;n5</title>
<path fill="none" stroke="black" d="M86.46,-91.05C76.05,-78.44 61,-60.21 48.65,-45.24"/>
<polygon fill="black" stroke="black" points="51.4,-43.07 42.34,-37.59 46,-47.53 51.4,-43.07"/>
<text text-anchor="middle" x="73.95" y="-57.95" font-family="Times,serif" font-size="14.00">1</text>
</g>
<!-- n6 -->
<g id="node7" class="node">
<title>n6</title>
<polygon fill="none" stroke="black" points="126,-36 72,-36 72,0 126,0 126,-36"/>
<text text-anchor="middle" x="99" y="-13.32" font-family="Times,serif" font-size="14.00">3</text>
</g>
<!-- n3&#45;&gt;n6 -->
<g id="edge6" class="edge">
<title>n3&#45;&gt;n6</title>
<path fill="none" stroke="black" stroke-dasharray="5,2" d="M99,-89.01C99,-77.18 99,-61.2 99,-47.5"/>
<polygon fill="black" stroke="black" points="102.5,-47.72 99,-37.72 95.5,-47.72 102.5,-47.72"/>
<text text-anchor="middle" x="103.5" y="-57.95" font-family="Times,serif" font-size="14.00">0</text>
</g>
<!-- n7 -->
<g id="node8" class="node">
<title>n7</title>
<polygon fill="none" stroke="black" points="198,-36 144,-36 144,0 198,0 198,-36"/>
<text text-anchor="middle" x="171" y="-13.32" font-family="Times,serif" font-size="14.00">5</text>
</g>
<!-- n4&#45;&gt;n7 -->
<g id="edge7" class="edge">
<title>n4&#45;&gt;n7</title>
<path fill="none" stroke="black" d="M186.25,-89.01C183.64,-77.06 180.12,-60.88 177.12,-47.08"/>
<polygon fill="black" stroke="black" points="180.62,-46.71 175.07,-37.68 173.78,-48.2 180.62,-46.71"/>
<text text-anchor="middle" x="186.7" y="-57.95" font-family="Times,serif" font-size="14.00">1</text>
</g>
<!-- n8 -->
<g id="node9" class="node">
<title>n8</title>
<polygon fill="none" stroke="black" points="270,-36 216,-36 216,0 270,0 270,-36"/>
<text text-anchor="middle" x="243" y="-13.32" font-family="Times,serif" font-size="14.00">1</text>
</g>
<!-- n4&#45;&gt;n8 -->
<g id="edge8" class="edge">
<title>n4&#45;&gt;n8</title>
<path fill="none" stroke="black" stroke-dasharray="5,2" d="M199.72,-90.25C207.25,-77.86 217.84,-60.41 226.67,-45.89"/>
<polygon fill="black" stroke="black" points="229.45,-48.06 231.65,-37.69 223.46,-44.42 229.45,-48.06"/>
<text text-anchor="middle" x="225.75" y="-57.95" font-family="Times,serif" font-size="14.00">0</text>
</g>
<!-- n11 -->
<g id="node12" class="node">
<title>n11</title>
<polygon fill="none" stroke="black" points="342,-36 288,-36 288,0 342,0 342,-36"/>
<text text-anchor="middle" x="315" y="-13.32" font-family="Times,serif" font-size="14.00">6</text>
</g>
<!-- n9&#45;&gt;n11 -->
<g id="edge11" class="edge">
<title>n9&#45;&gt;n11</title>
<path fill="none" stroke="black" d="M343.25,-89.43C338.42,-77.39 331.81,-60.91 326.2,-46.92"/>
<polygon fill="black" stroke="black" points="329.5,-45.75 322.53,-37.77 323.01,-48.36 329.5,-45.75"/>
<text text-anchor="middle" x="340.13" y="-57.95" font-family="Times,serif" font-size="14.00">1</text>
</g>
<!-- n12 -->
<g id="node13" class="node">
<title>n12</title>
<polygon fill="none" stroke="black" points="414,-36 360,-36 360,0 414,0 414,-36"/>
<text text-anchor="middle" x="387" y="-13.32" font-family="Times,serif" font-size="14.00">2</text>
</g>
<!-- n9&#45;&gt;n12 -->
<g id="edge12" class="edge">
<title>n9&#45;&gt;n12</title>
<path fill="none" stroke="black" stroke-dasharray="5,2" d="M357.13,-89.43C362.24,-77.39 369.23,-60.91 375.16,-46.92"/>
<polygon fill="black" stroke="black" points="378.36,-48.33 379.04,-37.76 371.92,-45.6 378.36,-48.33"/>
<text text-anchor="middle" x="376.31" y="-57.95" font-family="Times,serif" font-size="14.00">0</text>
</g>
<!-- n13 -->
<g id="node14" class="node">
<title>n13</title>
<polygon fill="none" stroke="black" points="486,-36 432,-36 432,0 486,0 486,-36"/>
<text text-anchor="middle" x="459" y="-13.32" font-family="Times,serif" font-size="14.00">4</text>
</g>
<!-- n10&#45;&gt;n13 -->
<g id="edge13" class="edge">
<title>n10&#45;&gt;n13</title>
<path fill="none" stroke="black" d="M459,-89.01C459,-77.18 459,-61.2 459,-47.5"/>
<polygon fill="black" stroke="black" points="462.5,-47.72 459,-37.72 455.5,-47.72 462.5,-47.72"/>
<text text-anchor="middle" x="463.5" y="-57.95" font-family="Times,serif" font-size="14.00">1</text>
</g>
<!-- n14 -->
<g id="node15" class="node">
<title>n14</title>
<polygon fill="none" stroke="black" points="558,-36 504,-36 504,0 558,0 558,-36"/>
<text text-anchor="middle" x="531" y="-13.32" font-family="Times,serif" font-size="14.00">0</text>
</g>
<!-- n10&#45;&gt;n14 -->
<g id="edge14" class="edge">
<title>n10&#45;&gt;n14</title>
<path fill="none" stroke="black" stroke-dasharray="5,2" d="M471.54,-91.05C481.95,-78.44 497,-60.21 509.35,-45.24"/>
<polygon fill="black" stroke="black" points="512,-47.53 515.66,-37.59 506.6,-43.07 512,-47.53"/>
<text text-anchor="middle" x="505.95" y="-57.95" font-family="Times,serif" font-size="14.00">0</text>
</g>
</g>
</svg>
