<?xml version="1.0" encoding="UTF-8" standalone="no"?>
<!DOCTYPE svg PUBLIC "-//W3C//DTD SVG 1.1//EN"
 "http://www.w3.org/Graphics/SVG/1.1/DTD/svg11.dtd">
<!-- Generated by graphviz version 12.2.1 (0)
 -->
<!-- Title: ADD Pages: 1 -->
<svg width="1339pt" height="847pt"
 viewBox="0.00 0.00 1339.16 847.25" xmlns="http://www.w3.org/2000/svg" xmlns:xlink="http://www.w3.org/1999/xlink">
<g id="graph0" class="graph" transform="scale(1 1) rotate(0) translate(4 843.25)">
<title>ADD</title>
<polygon fill="white" stroke="none" points="-4,4 -4,-843.25 1335.16,-843.25 1335.16,4 -4,4"/>
<!-- n0 -->
<g id="node1" class="node">
<title>n0</title>
<ellipse fill="none" stroke="black" cx="728" cy="-821.25" rx="27.53" ry="18"/>
<text text-anchor="middle" x="728" y="-816.58" font-family="Times,serif" font-size="14.00">s_0</text>
</g>
<!-- n1 -->
<g id="node2" class="node">
<title>n1</title>
<ellipse fill="none" stroke="black" cx="463" cy="-732" rx="30.16" ry="18"/>
<text text-anchor="middle" x="463" y="-727.33" font-family="Times,serif" font-size="14.00">s&#39;_0</text>
</g>
<!-- n0&#45;&gt;n1 -->
<g id="edge1" class="edge">
<title>n0&#45;&gt;n1</title>
<path fill="none" stroke="black" d="M704.02,-812.35C657.53,-797.05 554.9,-763.26 499.76,-745.1"/>
<polygon fill="black" stroke="black" points="501.1,-741.86 490.51,-742.06 498.91,-748.51 501.1,-741.86"/>
<text text-anchor="middle" x="623.74" y="-771.95" font-family="Times,serif" font-size="14.00">1</text>
</g>
<!-- n2 -->
<g id="node3" class="node">
<title>n2</title>
<ellipse fill="none" stroke="black" cx="930" cy="-732" rx="30.16" ry="18"/>
<text text-anchor="middle" x="930" y="-727.33" font-family="Times,serif" font-size="14.00">s&#39;_0</text>
</g>
<!-- n0&#45;&gt;n2 -->
<g id="edge2" class="edge">
<title>n0&#45;&gt;n2</title>
<path fill="none" stroke="black" stroke-dasharray="5,2" d="M750.39,-810.58C785.56,-795.39 854.02,-765.82 895.51,-747.9"/>
<polygon fill="black" stroke="black" points="896.76,-751.17 904.56,-743.99 893.99,-744.74 896.76,-751.17"/>
<text text-anchor="middle" x="851.59" y="-771.95" font-family="Times,serif" font-size="14.00">0</text>
</g>
<!-- n3 -->
<g id="node4" class="node">
<title>n3</title>
<ellipse fill="none" stroke="black" cx="365" cy="-642.75" rx="27.53" ry="18"/>
<text text-anchor="middle" x="365" y="-638.08" font-family="Times,serif" font-size="14.00">s_1</text>
</g>
<!-- n1&#45;&gt;n3 -->
<g id="edge3" class="edge">
<title>n1&#45;&gt;n3</title>
<path fill="none" stroke="black" d="M446.82,-716.59C431.12,-702.62 407.11,-681.24 389.15,-665.25"/>
<polygon fill="black" stroke="black" points="391.81,-662.93 382.01,-658.9 387.15,-668.16 391.81,-662.93"/>
<text text-anchor="middle" x="427.28" y="-682.7" font-family="Times,serif" font-size="14.00">1</text>
</g>
<!-- n4 -->
<g id="node5" class="node">
<title>n4</title>
<ellipse fill="none" stroke="black" cx="463" cy="-375" rx="27.53" ry="18"/>
<text text-anchor="middle" x="463" y="-370.32" font-family="Times,serif" font-size="14.00">s_1</text>
</g>
<!-- n1&#45;&gt;n4 -->
<g id="edge4" class="edge">
<title>n1&#45;&gt;n4</title>
<path fill="none" stroke="black" stroke-dasharray="5,2" d="M463,-713.62C463,-696.01 463,-667.99 463,-643.75 463,-643.75 463,-643.75 463,-463.25 463,-443.75 463,-421.79 463,-404.79"/>
<polygon fill="black" stroke="black" points="466.5,-404.9 463,-394.9 459.5,-404.9 466.5,-404.9"/>
<text text-anchor="middle" x="467.5" y="-548.83" font-family="Times,serif" font-size="14.00">0</text>
</g>
<!-- n25 -->
<g id="node26" class="node">
<title>n25</title>
<ellipse fill="none" stroke="black" cx="930" cy="-642.75" rx="27.53" ry="18"/>
<text text-anchor="middle" x="930" y="-638.08" font-family="Times,serif" font-size="14.00">s_1</text>
</g>
<!-- n2&#45;&gt;n25 -->
<g id="edge43" class="edge">
<title>n2&#45;&gt;n25</title>
<path fill="none" stroke="black" d="M930,-713.76C930,-701.93 930,-685.95 930,-672.25"/>
<polygon fill="black" stroke="black" points="933.5,-672.47 930,-662.47 926.5,-672.47 933.5,-672.47"/>
<text text-anchor="middle" x="934.5" y="-682.7" font-family="Times,serif" font-size="14.00">1</text>
</g>
<!-- n26 -->
<g id="node27" class="node">
<title>n26</title>
<ellipse fill="none" stroke="black" cx="1145" cy="-375" rx="27.53" ry="18"/>
<text text-anchor="middle" x="1145" y="-370.32" font-family="Times,serif" font-size="14.00">s_1</text>
</g>
<!-- n2&#45;&gt;n26 -->
<g id="edge44" class="edge">
<title>n2&#45;&gt;n26</title>
<path fill="none" stroke="black" stroke-dasharray="5,2" d="M960.5,-730.91C1016.04,-728.96 1128,-716.06 1128,-643.75 1128,-643.75 1128,-643.75 1128,-463.25 1128,-443.06 1132.44,-420.72 1136.78,-403.7"/>
<polygon fill="black" stroke="black" points="1140.08,-404.89 1139.32,-394.32 1133.33,-403.06 1140.08,-404.89"/>
<text text-anchor="middle" x="1132.5" y="-548.83" font-family="Times,serif" font-size="14.00">0</text>
</g>
<!-- n5 -->
<g id="node6" class="node">
<title>n5</title>
<ellipse fill="none" stroke="black" cx="365" cy="-553.5" rx="30.16" ry="18"/>
<text text-anchor="middle" x="365" y="-548.83" font-family="Times,serif" font-size="14.00">s&#39;_1</text>
</g>
<!-- n3&#45;&gt;n5 -->
<g id="edge5" class="edge">
<title>n3&#45;&gt;n5</title>
<path fill="none" stroke="black" d="M365,-624.51C365,-612.68 365,-596.7 365,-583"/>
<polygon fill="black" stroke="black" points="368.5,-583.22 365,-573.22 361.5,-583.22 368.5,-583.22"/>
<text text-anchor="middle" x="369.5" y="-593.45" font-family="Times,serif" font-size="14.00">1</text>
</g>
<!-- n6 -->
<g id="node7" class="node">
<title>n6</title>
<ellipse fill="none" stroke="black" cx="244" cy="-464.25" rx="30.16" ry="18"/>
<text text-anchor="middle" x="244" y="-459.57" font-family="Times,serif" font-size="14.00">s&#39;_1</text>
</g>
<!-- n3&#45;&gt;n6 -->
<g id="edge6" class="edge">
<title>n3&#45;&gt;n6</title>
<path fill="none" stroke="black" stroke-dasharray="5,2" d="M354.05,-625.78C332.95,-595.01 286.54,-527.31 261.25,-490.42"/>
<polygon fill="black" stroke="black" points="264.41,-488.83 255.87,-482.56 258.64,-492.79 264.41,-488.83"/>
<text text-anchor="middle" x="321.03" y="-548.83" font-family="Times,serif" font-size="14.00">0</text>
</g>
<!-- n12 -->
<g id="node13" class="node">
<title>n12</title>
<polygon fill="none" stroke="black" points="652,-36 598,-36 598,0 652,0 652,-36"/>
<text text-anchor="middle" x="625" y="-13.32" font-family="Times,serif" font-size="14.00">0</text>
</g>
<!-- n4&#45;&gt;n12 -->
<g id="edge35" class="edge">
<title>n4&#45;&gt;n12</title>
<path fill="none" stroke="black" d="M457.34,-356.91C452.98,-342.83 447.33,-322.24 445,-303.75 432.87,-207.53 445.57,-177.85 485,-89.25 492.81,-71.7 494.42,-65.23 510,-54 532.55,-37.74 562.77,-28.93 586.57,-24.21"/>
<polygon fill="black" stroke="black" points="586.97,-27.7 596.19,-22.48 585.72,-20.81 586.97,-27.7"/>
<text text-anchor="middle" x="453.95" y="-191.82" font-family="Times,serif" font-size="14.00">1</text>
</g>
<!-- n22 -->
<g id="node23" class="node">
<title>n22</title>
<ellipse fill="none" stroke="black" cx="484" cy="-285.75" rx="30.16" ry="18"/>
<text text-anchor="middle" x="484" y="-281.07" font-family="Times,serif" font-size="14.00">s&#39;_1</text>
</g>
<!-- n4&#45;&gt;n22 -->
<g id="edge36" class="edge">
<title>n4&#45;&gt;n22</title>
<path fill="none" stroke="black" stroke-dasharray="5,2" d="M467.15,-356.76C470.03,-344.81 473.92,-328.63 477.24,-314.83"/>
<polygon fill="black" stroke="black" points="480.57,-315.96 479.51,-305.42 473.76,-314.33 480.57,-315.96"/>
<text text-anchor="middle" x="479.88" y="-325.7" font-family="Times,serif" font-size="14.00">0</text>
</g>
<!-- n7 -->
<g id="node8" class="node">
<title>n7</title>
<ellipse fill="none" stroke="black" cx="330" cy="-464.25" rx="27.53" ry="18"/>
<text text-anchor="middle" x="330" y="-459.57" font-family="Times,serif" font-size="14.00">s_2</text>
</g>
<!-- n5&#45;&gt;n7 -->
<g id="edge7" class="edge">
<title>n5&#45;&gt;n7</title>
<path fill="none" stroke="black" d="M358.25,-535.68C353.36,-523.49 346.64,-506.74 340.98,-492.63"/>
<polygon fill="black" stroke="black" points="344.26,-491.4 337.29,-483.43 337.77,-494.01 344.26,-491.4"/>
<text text-anchor="middle" x="355.13" y="-504.2" font-family="Times,serif" font-size="14.00">1</text>
</g>
<!-- n8 -->
<g id="node9" class="node">
<title>n8</title>
<ellipse fill="none" stroke="black" cx="1087" cy="-196.5" rx="27.53" ry="18"/>
<text text-anchor="middle" x="1087" y="-191.82" font-family="Times,serif" font-size="14.00">s_2</text>
</g>
<!-- n5&#45;&gt;n8 -->
<g id="edge8" class="edge">
<title>n5&#45;&gt;n8</title>
<path fill="none" stroke="black" stroke-dasharray="5,2" d="M392.23,-545.21C406.63,-541.67 424.65,-537.7 441,-535.5 524.12,-524.3 738.77,-545.01 818,-517.5 894.9,-490.8 896.24,-451.24 967,-411 984.3,-401.16 994.14,-407.28 1008,-393 1054.07,-345.55 1074.46,-267.7 1082.47,-226"/>
<polygon fill="black" stroke="black" points="1085.9,-226.72 1084.23,-216.26 1079.01,-225.48 1085.9,-226.72"/>
<text text-anchor="middle" x="1039.85" y="-370.32" font-family="Times,serif" font-size="14.00">0</text>
</g>
<!-- n6&#45;&gt;n12 -->
<g id="edge26" class="edge">
<title>n6&#45;&gt;n12</title>
<path fill="none" stroke="black" stroke-dasharray="5,2" d="M214.57,-459.08C149.67,-449.08 0,-421.1 0,-376 0,-376 0,-376 0,-106.25 0,-73.17 21.2,-73.74 110,-54 200.78,-33.82 482.83,-23.36 586.37,-20.12"/>
<polygon fill="black" stroke="black" points="586.41,-23.62 596.3,-19.81 586.19,-16.62 586.41,-23.62"/>
<text text-anchor="middle" x="4.5" y="-236.45" font-family="Times,serif" font-size="14.00">0</text>
</g>
<!-- n18 -->
<g id="node19" class="node">
<title>n18</title>
<ellipse fill="none" stroke="black" cx="244" cy="-375" rx="27.53" ry="18"/>
<text text-anchor="middle" x="244" y="-370.32" font-family="Times,serif" font-size="14.00">s_2</text>
</g>
<!-- n6&#45;&gt;n18 -->
<g id="edge25" class="edge">
<title>n6&#45;&gt;n18</title>
<path fill="none" stroke="black" d="M244,-446.01C244,-434.18 244,-418.2 244,-404.5"/>
<polygon fill="black" stroke="black" points="247.5,-404.72 244,-394.72 240.5,-404.72 247.5,-404.72"/>
<text text-anchor="middle" x="248.5" y="-414.95" font-family="Times,serif" font-size="14.00">1</text>
</g>
<!-- n9 -->
<g id="node10" class="node">
<title>n9</title>
<ellipse fill="none" stroke="black" cx="138" cy="-107.25" rx="30.16" ry="18"/>
<text text-anchor="middle" x="138" y="-102.58" font-family="Times,serif" font-size="14.00">s&#39;_2</text>
</g>
<!-- n7&#45;&gt;n9 -->
<g id="edge9" class="edge">
<title>n7&#45;&gt;n9</title>
<path fill="none" stroke="black" d="M306.58,-454.39C250.86,-433.23 115,-381.12 115,-376 115,-376 115,-376 115,-195.5 115,-175.01 121.01,-152.68 126.88,-135.74"/>
<polygon fill="black" stroke="black" points="130.15,-136.97 130.33,-126.38 123.58,-134.55 130.15,-136.97"/>
<text text-anchor="middle" x="119.5" y="-281.07" font-family="Times,serif" font-size="14.00">1</text>
</g>
<!-- n10 -->
<g id="node11" class="node">
<title>n10</title>
<ellipse fill="none" stroke="black" cx="330" cy="-375" rx="30.16" ry="18"/>
<text text-anchor="middle" x="330" y="-370.32" font-family="Times,serif" font-size="14.00">s&#39;_2</text>
</g>
<!-- n7&#45;&gt;n10 -->
<g id="edge10" class="edge">
<title>n7&#45;&gt;n10</title>
<path fill="none" stroke="black" stroke-dasharray="5,2" d="M330,-446.01C330,-434.18 330,-418.2 330,-404.5"/>
<polygon fill="black" stroke="black" points="333.5,-404.72 330,-394.72 326.5,-404.72 333.5,-404.72"/>
<text text-anchor="middle" x="334.5" y="-414.95" font-family="Times,serif" font-size="14.00">0</text>
</g>
<!-- n8&#45;&gt;n12 -->
<g id="edge21" class="edge">
<title>n8&#45;&gt;n12</title>
<path fill="none" stroke="black" d="M1089.32,-178.43C1092.37,-148.23 1093.67,-85.58 1058,-54 1028.83,-28.18 764.73,-21.24 663.89,-19.52"/>
<polygon fill="black" stroke="black" points="663.99,-16.02 653.94,-19.36 663.88,-23.02 663.99,-16.02"/>
<text text-anchor="middle" x="1093.73" y="-102.58" font-family="Times,serif" font-size="14.00">1</text>
</g>
<!-- n17 -->
<g id="node18" class="node">
<title>n17</title>
<ellipse fill="none" stroke="black" cx="1301" cy="-107.25" rx="30.16" ry="18"/>
<text text-anchor="middle" x="1301" y="-102.58" font-family="Times,serif" font-size="14.00">s&#39;_2</text>
</g>
<!-- n8&#45;&gt;n17 -->
<g id="edge22" class="edge">
<title>n8&#45;&gt;n17</title>
<path fill="none" stroke="black" stroke-dasharray="5,2" d="M1110.31,-186.41C1126.9,-179.73 1149.61,-170.17 1169,-160.5 1182.76,-153.64 1185,-149.61 1199,-143.25 1219.66,-133.87 1243.63,-125.52 1263.13,-119.34"/>
<polygon fill="black" stroke="black" points="1264.08,-122.71 1272.6,-116.4 1262.01,-116.02 1264.08,-122.71"/>
<text text-anchor="middle" x="1203.5" y="-147.2" font-family="Times,serif" font-size="14.00">0</text>
</g>
<!-- n11 -->
<g id="node12" class="node">
<title>n11</title>
<polygon fill="none" stroke="black" points="143,-36 89,-36 89,0 143,0 143,-36"/>
<text text-anchor="middle" x="116" y="-13.32" font-family="Times,serif" font-size="14.00">1</text>
</g>
<!-- n9&#45;&gt;n11 -->
<g id="edge11" class="edge">
<title>n9&#45;&gt;n11</title>
<path fill="none" stroke="black" d="M126.07,-90.34C122.44,-84.62 118.92,-77.92 117,-71.25 114.84,-63.72 114.02,-55.33 113.89,-47.51"/>
<polygon fill="black" stroke="black" points="117.38,-47.86 114.09,-37.79 110.38,-47.71 117.38,-47.86"/>
<text text-anchor="middle" x="121.5" y="-57.95" font-family="Times,serif" font-size="14.00">1</text>
</g>
<!-- n9&#45;&gt;n12 -->
<g id="edge12" class="edge">
<title>n9&#45;&gt;n12</title>
<path fill="none" stroke="black" stroke-dasharray="5,2" d="M146.57,-89.99C153.94,-77.81 165.79,-61.93 181,-54 216.49,-35.5 485.02,-24.03 586.4,-20.32"/>
<polygon fill="black" stroke="black" points="586.26,-23.83 596.12,-19.97 586,-16.83 586.26,-23.83"/>
<text text-anchor="middle" x="185.5" y="-57.95" font-family="Times,serif" font-size="14.00">0</text>
</g>
<!-- n10&#45;&gt;n12 -->
<g id="edge14" class="edge">
<title>n10&#45;&gt;n12</title>
<path fill="none" stroke="black" stroke-dasharray="5,2" d="M314.7,-359.15C299.68,-342.9 279,-315.35 279,-286.75 279,-286.75 279,-286.75 279,-106.25 279,-43.48 495.82,-25.41 586.18,-20.61"/>
<polygon fill="black" stroke="black" points="586.24,-24.11 596.05,-20.12 585.89,-17.12 586.24,-24.11"/>
<text text-anchor="middle" x="283.5" y="-191.82" font-family="Times,serif" font-size="14.00">0</text>
</g>
<!-- n13 -->
<g id="node14" class="node">
<title>n13</title>
<ellipse fill="none" stroke="black" cx="338" cy="-285.75" rx="31.22" ry="18"/>
<text text-anchor="middle" x="338" y="-281.07" font-family="Times,serif" font-size="14.00">d&#39;_0</text>
</g>
<!-- n10&#45;&gt;n13 -->
<g id="edge13" class="edge">
<title>n10&#45;&gt;n13</title>
<path fill="none" stroke="black" d="M331.58,-356.76C332.67,-344.93 334.13,-328.95 335.39,-315.25"/>
<polygon fill="black" stroke="black" points="338.86,-315.74 336.28,-305.46 331.89,-315.1 338.86,-315.74"/>
<text text-anchor="middle" x="339.22" y="-325.7" font-family="Times,serif" font-size="14.00">1</text>
</g>
<!-- n13&#45;&gt;n12 -->
<g id="edge16" class="edge">
<title>n13&#45;&gt;n12</title>
<path fill="none" stroke="black" stroke-dasharray="5,2" d="M334.72,-267.52C331.31,-246.25 327.43,-209.13 335,-178.5 350.39,-116.23 353.24,-87.4 408,-54 437.29,-36.14 532.49,-26.1 586.56,-21.71"/>
<polygon fill="black" stroke="black" points="586.55,-25.22 596.25,-20.95 586,-18.24 586.55,-25.22"/>
<text text-anchor="middle" x="348.04" y="-147.2" font-family="Times,serif" font-size="14.00">0</text>
</g>
<!-- n14 -->
<g id="node15" class="node">
<title>n14</title>
<ellipse fill="none" stroke="black" cx="375" cy="-196.5" rx="31.22" ry="18"/>
<text text-anchor="middle" x="375" y="-191.82" font-family="Times,serif" font-size="14.00">d&#39;_1</text>
</g>
<!-- n13&#45;&gt;n14 -->
<g id="edge15" class="edge">
<title>n13&#45;&gt;n14</title>
<path fill="none" stroke="black" d="M345.13,-267.93C350.35,-255.62 357.55,-238.65 363.57,-224.46"/>
<polygon fill="black" stroke="black" points="366.62,-226.24 367.3,-215.66 360.17,-223.5 366.62,-226.24"/>
<text text-anchor="middle" x="364.31" y="-236.45" font-family="Times,serif" font-size="14.00">1</text>
</g>
<!-- n14&#45;&gt;n12 -->
<g id="edge17" class="edge">
<title>n14&#45;&gt;n12</title>
<path fill="none" stroke="black" d="M376.03,-178.02C378.8,-147.74 389.06,-85.75 427,-54 450.61,-34.25 535.66,-25.1 586.29,-21.32"/>
<polygon fill="black" stroke="black" points="586.52,-24.81 596.25,-20.62 586.02,-17.83 586.52,-24.81"/>
<text text-anchor="middle" x="403.19" y="-102.58" font-family="Times,serif" font-size="14.00">1</text>
</g>
<!-- n15 -->
<g id="node16" class="node">
<title>n15</title>
<ellipse fill="none" stroke="black" cx="732" cy="-107.25" rx="31.22" ry="18"/>
<text text-anchor="middle" x="732" y="-102.58" font-family="Times,serif" font-size="14.00">d&#39;_2</text>
</g>
<!-- n14&#45;&gt;n15 -->
<g id="edge18" class="edge">
<title>n14&#45;&gt;n15</title>
<path fill="none" stroke="black" stroke-dasharray="5,2" d="M390.33,-180.63C404.17,-168.22 425.73,-151.32 448,-143.25 550.24,-106.23 586.32,-150.86 692,-125.25 694,-124.76 696.03,-124.19 698.06,-123.55"/>
<polygon fill="black" stroke="black" points="699.14,-126.88 707.33,-120.16 696.73,-120.31 699.14,-126.88"/>
<text text-anchor="middle" x="452.5" y="-147.2" font-family="Times,serif" font-size="14.00">0</text>
</g>
<!-- n15&#45;&gt;n12 -->
<g id="edge19" class="edge">
<title>n15&#45;&gt;n12</title>
<path fill="none" stroke="black" d="M714.81,-92.23C698.69,-79.09 674.26,-59.16 654.94,-43.41"/>
<polygon fill="black" stroke="black" points="657.33,-40.85 647.37,-37.24 652.91,-46.28 657.33,-40.85"/>
<text text-anchor="middle" x="692.58" y="-57.95" font-family="Times,serif" font-size="14.00">1</text>
</g>
<!-- n16 -->
<g id="node17" class="node">
<title>n16</title>
<polygon fill="none" stroke="black" points="1260,-36 1206,-36 1206,0 1260,0 1260,-36"/>
<text text-anchor="middle" x="1233" y="-13.32" font-family="Times,serif" font-size="14.00">0.5</text>
</g>
<!-- n15&#45;&gt;n16 -->
<g id="edge20" class="edge">
<title>n15&#45;&gt;n16</title>
<path fill="none" stroke="black" stroke-dasharray="5,2" d="M757.03,-96.13C763.48,-93.71 770.45,-91.25 777,-89.25 927.12,-43.47 1114.58,-26.61 1194.27,-21.23"/>
<polygon fill="black" stroke="black" points="1194.41,-24.72 1204.16,-20.58 1193.96,-17.74 1194.41,-24.72"/>
<text text-anchor="middle" x="929.26" y="-57.95" font-family="Times,serif" font-size="14.00">0</text>
</g>
<!-- n17&#45;&gt;n12 -->
<g id="edge23" class="edge">
<title>n17&#45;&gt;n12</title>
<path fill="none" stroke="black" d="M1289.17,-90.32C1278.99,-77.98 1263.1,-61.73 1245,-54 1191.75,-31.26 791.29,-22.04 663.83,-19.66"/>
<polygon fill="black" stroke="black" points="663.95,-16.16 653.89,-19.48 663.82,-23.16 663.95,-16.16"/>
<text text-anchor="middle" x="1275.4" y="-57.95" font-family="Times,serif" font-size="14.00">1</text>
</g>
<!-- n17&#45;&gt;n16 -->
<g id="edge24" class="edge">
<title>n17&#45;&gt;n16</title>
<path fill="none" stroke="black" stroke-dasharray="5,2" d="M1301.17,-88.88C1300.48,-77.99 1298.07,-64.15 1291,-54 1285.65,-46.32 1278.01,-40.03 1270.03,-35.01"/>
<polygon fill="black" stroke="black" points="1272.01,-32.1 1261.58,-30.25 1268.58,-38.2 1272.01,-32.1"/>
<text text-anchor="middle" x="1302.95" y="-57.95" font-family="Times,serif" font-size="14.00">0</text>
</g>
<!-- n18&#45;&gt;n17 -->
<g id="edge28" class="edge">
<title>n18&#45;&gt;n17</title>
<path fill="none" stroke="black" stroke-dasharray="5,2" d="M266.56,-364.33C274.19,-361.47 282.84,-358.66 291,-357 294.31,-356.33 1259.45,-305.96 1262,-303.75 1309.82,-262.29 1309.22,-180.3 1304.98,-136.84"/>
<polygon fill="black" stroke="black" points="1308.46,-136.47 1303.86,-126.93 1301.5,-137.26 1308.46,-136.47"/>
<text text-anchor="middle" x="1304.92" y="-236.45" font-family="Times,serif" font-size="14.00">0</text>
</g>
<!-- n19 -->
<g id="node20" class="node">
<title>n19</title>
<ellipse fill="none" stroke="black" cx="221" cy="-285.75" rx="30.16" ry="18"/>
<text text-anchor="middle" x="221" y="-281.07" font-family="Times,serif" font-size="14.00">s&#39;_2</text>
</g>
<!-- n18&#45;&gt;n19 -->
<g id="edge27" class="edge">
<title>n18&#45;&gt;n19</title>
<path fill="none" stroke="black" d="M239.46,-356.76C236.31,-344.81 232.04,-328.63 228.4,-314.83"/>
<polygon fill="black" stroke="black" points="231.85,-314.19 225.92,-305.42 225.09,-315.98 231.85,-314.19"/>
<text text-anchor="middle" x="239.06" y="-325.7" font-family="Times,serif" font-size="14.00">1</text>
</g>
<!-- n19&#45;&gt;n12 -->
<g id="edge30" class="edge">
<title>n19&#45;&gt;n12</title>
<path fill="none" stroke="black" stroke-dasharray="5,2" d="M221.7,-267.53C224.07,-219 233.44,-82.79 265,-54 288.37,-32.68 497.96,-23.24 586.16,-20.18"/>
<polygon fill="black" stroke="black" points="586.13,-23.69 596.01,-19.85 585.9,-16.69 586.13,-23.69"/>
<text text-anchor="middle" x="238.13" y="-147.2" font-family="Times,serif" font-size="14.00">0</text>
</g>
<!-- n20 -->
<g id="node21" class="node">
<title>n20</title>
<ellipse fill="none" stroke="black" cx="174" cy="-196.5" rx="31.22" ry="18"/>
<text text-anchor="middle" x="174" y="-191.82" font-family="Times,serif" font-size="14.00">d&#39;_1</text>
</g>
<!-- n19&#45;&gt;n20 -->
<g id="edge29" class="edge">
<title>n19&#45;&gt;n20</title>
<path fill="none" stroke="black" d="M212.16,-268.34C205.44,-255.87 196.06,-238.45 188.28,-224.01"/>
<polygon fill="black" stroke="black" points="191.5,-222.61 183.68,-215.47 185.34,-225.93 191.5,-222.61"/>
<text text-anchor="middle" x="206.21" y="-236.45" font-family="Times,serif" font-size="14.00">1</text>
</g>
<!-- n20&#45;&gt;n12 -->
<g id="edge31" class="edge">
<title>n20&#45;&gt;n12</title>
<path fill="none" stroke="black" d="M174.84,-178.15C177.35,-147.5 187.32,-84.17 227,-54 255.2,-32.56 491.78,-23.05 586.26,-20.08"/>
<polygon fill="black" stroke="black" points="586.17,-23.59 596.06,-19.78 585.96,-16.59 586.17,-23.59"/>
<text text-anchor="middle" x="202.19" y="-102.58" font-family="Times,serif" font-size="14.00">1</text>
</g>
<!-- n21 -->
<g id="node22" class="node">
<title>n21</title>
<ellipse fill="none" stroke="black" cx="59" cy="-107.25" rx="31.22" ry="18"/>
<text text-anchor="middle" x="59" y="-102.58" font-family="Times,serif" font-size="14.00">d&#39;_2</text>
</g>
<!-- n20&#45;&gt;n21 -->
<g id="edge32" class="edge">
<title>n20&#45;&gt;n21</title>
<path fill="none" stroke="black" stroke-dasharray="5,2" d="M155.52,-181.48C136.83,-167.3 107.72,-145.21 86.35,-129"/>
<polygon fill="black" stroke="black" points="88.72,-126.4 78.64,-123.15 84.49,-131.98 88.72,-126.4"/>
<text text-anchor="middle" x="131.3" y="-147.2" font-family="Times,serif" font-size="14.00">0</text>
</g>
<!-- n21&#45;&gt;n11 -->
<g id="edge33" class="edge">
<title>n21&#45;&gt;n11</title>
<path fill="none" stroke="black" d="M69.45,-90.25C77.55,-77.86 88.94,-60.41 98.43,-45.89"/>
<polygon fill="black" stroke="black" points="101.27,-47.95 103.81,-37.66 95.41,-44.12 101.27,-47.95"/>
<text text-anchor="middle" x="97.11" y="-57.95" font-family="Times,serif" font-size="14.00">1</text>
</g>
<!-- n21&#45;&gt;n12 -->
<g id="edge34" class="edge">
<title>n21&#45;&gt;n12</title>
<path fill="none" stroke="black" stroke-dasharray="5,2" d="M82.78,-95.01C95.82,-88.55 112.12,-80 126,-71.25 136.81,-64.44 137.03,-58.48 149,-54 228.8,-24.11 487.61,-19.65 586.29,-19.06"/>
<polygon fill="black" stroke="black" points="586.29,-22.56 596.27,-19.01 586.25,-15.56 586.29,-22.56"/>
<text text-anchor="middle" x="153.5" y="-57.95" font-family="Times,serif" font-size="14.00">0</text>
</g>
<!-- n22&#45;&gt;n12 -->
<g id="edge37" class="edge">
<title>n22&#45;&gt;n12</title>
<path fill="none" stroke="black" d="M481.49,-267.4C476.38,-224.64 469.71,-113.36 528,-54 543.52,-38.2 566.69,-29.49 586.5,-24.72"/>
<polygon fill="black" stroke="black" points="587.15,-28.16 596.21,-22.65 585.7,-21.31 587.15,-28.16"/>
<text text-anchor="middle" x="489.2" y="-147.2" font-family="Times,serif" font-size="14.00">1</text>
</g>
<!-- n23 -->
<g id="node24" class="node">
<title>n23</title>
<ellipse fill="none" stroke="black" cx="914" cy="-196.5" rx="27.53" ry="18"/>
<text text-anchor="middle" x="914" y="-191.82" font-family="Times,serif" font-size="14.00">s_2</text>
</g>
<!-- n22&#45;&gt;n23 -->
<g id="edge38" class="edge">
<title>n22&#45;&gt;n23</title>
<path fill="none" stroke="black" stroke-dasharray="5,2" d="M507.57,-274.14C536.63,-261.63 587.83,-241.41 634,-232.5 740.33,-211.97 772.13,-241.54 877,-214.5 878.88,-214.01 880.79,-213.44 882.69,-212.79"/>
<polygon fill="black" stroke="black" points="883.94,-216.06 891.94,-209.11 881.35,-209.56 883.94,-216.06"/>
<text text-anchor="middle" x="638.5" y="-236.45" font-family="Times,serif" font-size="14.00">0</text>
</g>
<!-- n23&#45;&gt;n12 -->
<g id="edge39" class="edge">
<title>n23&#45;&gt;n12</title>
<path fill="none" stroke="black" d="M903.2,-179.79C887.97,-158.2 858.72,-118.66 829,-89.25 810.94,-71.38 806.98,-64.83 784,-54 745.24,-35.72 696.61,-26.82 663.41,-22.6"/>
<polygon fill="black" stroke="black" points="664.19,-19.16 653.85,-21.47 663.37,-26.12 664.19,-19.16"/>
<text text-anchor="middle" x="865.58" y="-102.58" font-family="Times,serif" font-size="14.00">1</text>
</g>
<!-- n24 -->
<g id="node25" class="node">
<title>n24</title>
<ellipse fill="none" stroke="black" cx="1185" cy="-107.25" rx="30.16" ry="18"/>
<text text-anchor="middle" x="1185" y="-102.58" font-family="Times,serif" font-size="14.00">s&#39;_2</text>
</g>
<!-- n23&#45;&gt;n24 -->
<g id="edge40" class="edge">
<title>n23&#45;&gt;n24</title>
<path fill="none" stroke="black" stroke-dasharray="5,2" d="M918.84,-178.51C923.16,-166.6 930.74,-151.42 943,-143.25 972.77,-123.4 1067.67,-130.89 1103,-125.25 1117.13,-122.99 1132.52,-119.96 1146.11,-117.08"/>
<polygon fill="black" stroke="black" points="1146.52,-120.57 1155.55,-115.04 1145.04,-113.73 1146.52,-120.57"/>
<text text-anchor="middle" x="947.5" y="-147.2" font-family="Times,serif" font-size="14.00">0</text>
</g>
<!-- n24&#45;&gt;n12 -->
<g id="edge42" class="edge">
<title>n24&#45;&gt;n12</title>
<path fill="none" stroke="black" stroke-dasharray="5,2" d="M1175.3,-89.92C1167.05,-77.7 1154.02,-61.8 1138,-54 1095.75,-33.42 775.9,-23.02 663.73,-19.97"/>
<polygon fill="black" stroke="black" points="663.92,-16.48 653.83,-19.71 663.73,-23.47 663.92,-16.48"/>
<text text-anchor="middle" x="1163.72" y="-57.95" font-family="Times,serif" font-size="14.00">0</text>
</g>
<!-- n24&#45;&gt;n16 -->
<g id="edge41" class="edge">
<title>n24&#45;&gt;n16</title>
<path fill="none" stroke="black" d="M1205.56,-94.05C1213.59,-88.19 1222.04,-80.44 1227,-71.25 1230.8,-64.21 1232.71,-55.86 1233.56,-47.93"/>
<polygon fill="black" stroke="black" points="1237.06,-48.12 1234.09,-37.95 1230.07,-47.75 1237.06,-48.12"/>
<text text-anchor="middle" x="1236.99" y="-57.95" font-family="Times,serif" font-size="14.00">1</text>
</g>
<!-- n27 -->
<g id="node28" class="node">
<title>n27</title>
<ellipse fill="none" stroke="black" cx="895" cy="-553.5" rx="30.16" ry="18"/>
<text text-anchor="middle" x="895" y="-548.83" font-family="Times,serif" font-size="14.00">s&#39;_1</text>
</g>
<!-- n25&#45;&gt;n27 -->
<g id="edge45" class="edge">
<title>n25&#45;&gt;n27</title>
<path fill="none" stroke="black" d="M923.25,-624.93C918.36,-612.74 911.64,-595.99 905.98,-581.88"/>
<polygon fill="black" stroke="black" points="909.26,-580.65 902.29,-572.68 902.77,-583.26 909.26,-580.65"/>
<text text-anchor="middle" x="920.13" y="-593.45" font-family="Times,serif" font-size="14.00">1</text>
</g>
<!-- n28 -->
<g id="node29" class="node">
<title>n28</title>
<ellipse fill="none" stroke="black" cx="971" cy="-464.25" rx="30.16" ry="18"/>
<text text-anchor="middle" x="971" y="-459.57" font-family="Times,serif" font-size="14.00">s&#39;_1</text>
</g>
<!-- n25&#45;&gt;n28 -->
<g id="edge46" class="edge">
<title>n25&#45;&gt;n28</title>
<path fill="none" stroke="black" stroke-dasharray="5,2" d="M934.01,-624.51C941.08,-594.06 955.84,-530.51 964.43,-493.55"/>
<polygon fill="black" stroke="black" points="967.78,-494.57 966.64,-484.04 960.96,-492.99 967.78,-494.57"/>
<text text-anchor="middle" x="959.08" y="-548.83" font-family="Times,serif" font-size="14.00">0</text>
</g>
<!-- n38 -->
<g id="node39" class="node">
<title>n38</title>
<ellipse fill="none" stroke="black" cx="1145" cy="-285.75" rx="30.16" ry="18"/>
<text text-anchor="middle" x="1145" y="-281.07" font-family="Times,serif" font-size="14.00">s&#39;_1</text>
</g>
<!-- n26&#45;&gt;n38 -->
<g id="edge69" class="edge">
<title>n26&#45;&gt;n38</title>
<path fill="none" stroke="black" d="M1145,-356.76C1145,-344.93 1145,-328.95 1145,-315.25"/>
<polygon fill="black" stroke="black" points="1148.5,-315.47 1145,-305.47 1141.5,-315.47 1148.5,-315.47"/>
<text text-anchor="middle" x="1149.5" y="-325.7" font-family="Times,serif" font-size="14.00">1</text>
</g>
<!-- n39 -->
<g id="node40" class="node">
<title>n39</title>
<ellipse fill="none" stroke="black" cx="1223" cy="-285.75" rx="30.16" ry="18"/>
<text text-anchor="middle" x="1223" y="-281.07" font-family="Times,serif" font-size="14.00">s&#39;_1</text>
</g>
<!-- n26&#45;&gt;n39 -->
<g id="edge70" class="edge">
<title>n26&#45;&gt;n39</title>
<path fill="none" stroke="black" stroke-dasharray="5,2" d="M1158.23,-359.2C1170.08,-345.95 1187.66,-326.28 1201.52,-310.78"/>
<polygon fill="black" stroke="black" points="1204.11,-313.13 1208.17,-303.34 1198.89,-308.46 1204.11,-313.13"/>
<text text-anchor="middle" x="1195.49" y="-325.7" font-family="Times,serif" font-size="14.00">0</text>
</g>
<!-- n27&#45;&gt;n23 -->
<g id="edge48" class="edge">
<title>n27&#45;&gt;n23</title>
<path fill="none" stroke="black" stroke-dasharray="5,2" d="M895,-535.12C895,-517.51 895,-489.49 895,-465.25 895,-465.25 895,-465.25 895,-284.75 895,-264.47 899.96,-242.13 904.81,-225.14"/>
<polygon fill="black" stroke="black" points="908.1,-226.35 907.65,-215.77 901.4,-224.32 908.1,-226.35"/>
<text text-anchor="middle" x="899.5" y="-370.32" font-family="Times,serif" font-size="14.00">0</text>
</g>
<!-- n29 -->
<g id="node30" class="node">
<title>n29</title>
<ellipse fill="none" stroke="black" cx="676" cy="-464.25" rx="27.53" ry="18"/>
<text text-anchor="middle" x="676" y="-459.57" font-family="Times,serif" font-size="14.00">s_2</text>
</g>
<!-- n27&#45;&gt;n29 -->
<g id="edge47" class="edge">
<title>n27&#45;&gt;n29</title>
<path fill="none" stroke="black" d="M870.3,-542.66C831.01,-527.01 754.19,-496.4 709.82,-478.72"/>
<polygon fill="black" stroke="black" points="711.27,-475.53 700.69,-475.09 708.68,-482.04 711.27,-475.53"/>
<text text-anchor="middle" x="809.62" y="-504.2" font-family="Times,serif" font-size="14.00">1</text>
</g>
<!-- n28&#45;&gt;n8 -->
<g id="edge60" class="edge">
<title>n28&#45;&gt;n8</title>
<path fill="none" stroke="black" stroke-dasharray="5,2" d="M991.86,-451.02C1010.71,-438.81 1037.65,-418.25 1052,-393 1082.27,-339.73 1087.38,-266.22 1087.68,-226.23"/>
<polygon fill="black" stroke="black" points="1091.18,-226.23 1087.64,-216.24 1084.18,-226.25 1091.18,-226.23"/>
<text text-anchor="middle" x="1082.01" y="-325.7" font-family="Times,serif" font-size="14.00">0</text>
</g>
<!-- n34 -->
<g id="node35" class="node">
<title>n34</title>
<ellipse fill="none" stroke="black" cx="971" cy="-375" rx="27.53" ry="18"/>
<text text-anchor="middle" x="971" y="-370.32" font-family="Times,serif" font-size="14.00">s_2</text>
</g>
<!-- n28&#45;&gt;n34 -->
<g id="edge59" class="edge">
<title>n28&#45;&gt;n34</title>
<path fill="none" stroke="black" d="M971,-446.01C971,-434.18 971,-418.2 971,-404.5"/>
<polygon fill="black" stroke="black" points="974.5,-404.72 971,-394.72 967.5,-404.72 974.5,-404.72"/>
<text text-anchor="middle" x="975.5" y="-414.95" font-family="Times,serif" font-size="14.00">1</text>
</g>
<!-- n29&#45;&gt;n12 -->
<g id="edge50" class="edge">
<title>n29&#45;&gt;n12</title>
<path fill="none" stroke="black" stroke-dasharray="5,2" d="M674.37,-446.03C670.53,-407.48 659.97,-311.43 643,-232.5 632.57,-183.99 621.22,-174 612,-125.25 606.1,-94.06 599.53,-84.85 607,-54 607.6,-51.52 608.41,-49.01 609.35,-46.55"/>
<polygon fill="black" stroke="black" points="612.5,-48.09 613.49,-37.54 606.14,-45.17 612.5,-48.09"/>
<text text-anchor="middle" x="650.83" y="-236.45" font-family="Times,serif" font-size="14.00">0</text>
</g>
<!-- n30 -->
<g id="node31" class="node">
<title>n30</title>
<ellipse fill="none" stroke="black" cx="618" cy="-375" rx="30.16" ry="18"/>
<text text-anchor="middle" x="618" y="-370.32" font-family="Times,serif" font-size="14.00">s&#39;_2</text>
</g>
<!-- n29&#45;&gt;n30 -->
<g id="edge49" class="edge">
<title>n29&#45;&gt;n30</title>
<path fill="none" stroke="black" d="M665.36,-447.25C656.91,-434.54 644.93,-416.51 635.13,-401.77"/>
<polygon fill="black" stroke="black" points="638.06,-399.85 629.6,-393.46 632.23,-403.72 638.06,-399.85"/>
<text text-anchor="middle" x="656.69" y="-414.95" font-family="Times,serif" font-size="14.00">1</text>
</g>
<!-- n30&#45;&gt;n12 -->
<g id="edge52" class="edge">
<title>n30&#45;&gt;n12</title>
<path fill="none" stroke="black" stroke-dasharray="5,2" d="M615.7,-356.68C612.87,-335.63 607.84,-299.05 603,-267.75 588.38,-173.28 536.54,-139.65 579,-54 581.43,-49.09 584.92,-44.68 588.91,-40.78"/>
<polygon fill="black" stroke="black" points="591.02,-43.58 596.44,-34.48 586.53,-38.21 591.02,-43.58"/>
<text text-anchor="middle" x="594.02" y="-191.82" font-family="Times,serif" font-size="14.00">0</text>
</g>
<!-- n31 -->
<g id="node32" class="node">
<title>n31</title>
<ellipse fill="none" stroke="black" cx="563" cy="-285.75" rx="31.22" ry="18"/>
<text text-anchor="middle" x="563" y="-281.07" font-family="Times,serif" font-size="14.00">d&#39;_0</text>
</g>
<!-- n30&#45;&gt;n31 -->
<g id="edge51" class="edge">
<title>n30&#45;&gt;n31</title>
<path fill="none" stroke="black" d="M607.65,-357.59C599.67,-344.91 588.46,-327.14 579.27,-312.56"/>
<polygon fill="black" stroke="black" points="582.4,-310.96 574.11,-304.37 576.48,-314.69 582.4,-310.96"/>
<text text-anchor="middle" x="599.93" y="-325.7" font-family="Times,serif" font-size="14.00">1</text>
</g>
<!-- n31&#45;&gt;n12 -->
<g id="edge53" class="edge">
<title>n31&#45;&gt;n12</title>
<path fill="none" stroke="black" d="M554.73,-267.91C536.07,-227.24 495.69,-121.97 541,-54 551.28,-38.58 569.78,-29.94 586.8,-25.11"/>
<polygon fill="black" stroke="black" points="587.32,-28.59 596.2,-22.81 585.66,-21.79 587.32,-28.59"/>
<text text-anchor="middle" x="526.49" y="-147.2" font-family="Times,serif" font-size="14.00">1</text>
</g>
<!-- n32 -->
<g id="node33" class="node">
<title>n32</title>
<ellipse fill="none" stroke="black" cx="837" cy="-196.5" rx="31.22" ry="18"/>
<text text-anchor="middle" x="837" y="-191.82" font-family="Times,serif" font-size="14.00">d&#39;_1</text>
</g>
<!-- n31&#45;&gt;n32 -->
<g id="edge54" class="edge">
<title>n31&#45;&gt;n32</title>
<path fill="none" stroke="black" stroke-dasharray="5,2" d="M591.06,-277.4C635.31,-265.58 723.8,-240.95 797,-214.5 798.81,-213.85 800.65,-213.16 802.5,-212.44"/>
<polygon fill="black" stroke="black" points="803.69,-215.74 811.65,-208.75 801.07,-209.24 803.69,-215.74"/>
<text text-anchor="middle" x="744.4" y="-236.45" font-family="Times,serif" font-size="14.00">0</text>
</g>
<!-- n32&#45;&gt;n12 -->
<g id="edge56" class="edge">
<title>n32&#45;&gt;n12</title>
<path fill="none" stroke="black" stroke-dasharray="5,2" d="M833.63,-178.53C826.4,-147.31 806.17,-81.42 760,-54 730.27,-36.34 691.69,-27.49 663.39,-23.12"/>
<polygon fill="black" stroke="black" points="664.22,-19.7 653.83,-21.77 663.24,-26.63 664.22,-19.7"/>
<text text-anchor="middle" x="820.12" y="-102.58" font-family="Times,serif" font-size="14.00">0</text>
</g>
<!-- n33 -->
<g id="node34" class="node">
<title>n33</title>
<ellipse fill="none" stroke="black" cx="985" cy="-107.25" rx="31.22" ry="18"/>
<text text-anchor="middle" x="985" y="-102.58" font-family="Times,serif" font-size="14.00">d&#39;_2</text>
</g>
<!-- n32&#45;&gt;n33 -->
<g id="edge55" class="edge">
<title>n32&#45;&gt;n33</title>
<path fill="none" stroke="black" d="M854.96,-181.49C869.6,-170.4 891.03,-154.9 911,-143.25 923.25,-136.1 937.19,-129.21 949.64,-123.46"/>
<polygon fill="black" stroke="black" points="951.07,-126.65 958.74,-119.35 948.19,-120.27 951.07,-126.65"/>
<text text-anchor="middle" x="915.5" y="-147.2" font-family="Times,serif" font-size="14.00">1</text>
</g>
<!-- n33&#45;&gt;n12 -->
<g id="edge58" class="edge">
<title>n33&#45;&gt;n12</title>
<path fill="none" stroke="black" stroke-dasharray="5,2" d="M975.45,-89.62C967.58,-77.57 955.25,-62.04 940,-54 892.86,-29.14 736.69,-21.86 663.49,-19.79"/>
<polygon fill="black" stroke="black" points="663.67,-16.3 653.59,-19.53 663.49,-23.29 663.67,-16.3"/>
<text text-anchor="middle" x="964.91" y="-57.95" font-family="Times,serif" font-size="14.00">0</text>
</g>
<!-- n33&#45;&gt;n16 -->
<g id="edge57" class="edge">
<title>n33&#45;&gt;n16</title>
<path fill="none" stroke="black" d="M1014.15,-100.04C1030.04,-96.72 1050.08,-92.62 1068,-89.25 1114.53,-80.5 1130.23,-91.55 1173,-71.25 1186.65,-64.77 1199.59,-54.29 1209.93,-44.41"/>
<polygon fill="black" stroke="black" points="1212.31,-46.98 1216.9,-37.43 1207.36,-42.03 1212.31,-46.98"/>
<text text-anchor="middle" x="1202.89" y="-57.95" font-family="Times,serif" font-size="14.00">1</text>
</g>
<!-- n34&#45;&gt;n12 -->
<g id="edge62" class="edge">
<title>n34&#45;&gt;n12</title>
<path fill="none" stroke="black" stroke-dasharray="5,2" d="M977.05,-356.99C995.8,-303.06 1050.16,-136.71 1025,-89.25 991.34,-25.77 757.73,-18.84 663.89,-18.65"/>
<polygon fill="black" stroke="black" points="663.9,-15.15 653.9,-18.66 663.9,-22.15 663.9,-15.15"/>
<text text-anchor="middle" x="1030.39" y="-191.82" font-family="Times,serif" font-size="14.00">0</text>
</g>
<!-- n35 -->
<g id="node36" class="node">
<title>n35</title>
<ellipse fill="none" stroke="black" cx="953" cy="-285.75" rx="30.16" ry="18"/>
<text text-anchor="middle" x="953" y="-281.07" font-family="Times,serif" font-size="14.00">s&#39;_2</text>
</g>
<!-- n34&#45;&gt;n35 -->
<g id="edge61" class="edge">
<title>n34&#45;&gt;n35</title>
<path fill="none" stroke="black" d="M967.44,-356.76C964.98,-344.81 961.64,-328.63 958.79,-314.83"/>
<polygon fill="black" stroke="black" points="962.3,-314.52 956.85,-305.43 955.45,-315.94 962.3,-314.52"/>
<text text-anchor="middle" x="968.11" y="-325.7" font-family="Times,serif" font-size="14.00">1</text>
</g>
<!-- n35&#45;&gt;n12 -->
<g id="edge64" class="edge">
<title>n35&#45;&gt;n12</title>
<path fill="none" stroke="black" stroke-dasharray="5,2" d="M955.13,-267.51C957.96,-240.61 961.56,-187.18 952,-143.25 950.85,-137.94 916.37,-57.22 912,-54 873.43,-25.56 732.72,-20.07 663.7,-19.12"/>
<polygon fill="black" stroke="black" points="664.03,-15.63 653.99,-19.02 663.95,-22.62 664.03,-15.63"/>
<text text-anchor="middle" x="959.36" y="-147.2" font-family="Times,serif" font-size="14.00">0</text>
</g>
<!-- n36 -->
<g id="node37" class="node">
<title>n36</title>
<ellipse fill="none" stroke="black" cx="757" cy="-196.5" rx="31.22" ry="18"/>
<text text-anchor="middle" x="757" y="-191.82" font-family="Times,serif" font-size="14.00">d&#39;_1</text>
</g>
<!-- n35&#45;&gt;n36 -->
<g id="edge63" class="edge">
<title>n35&#45;&gt;n36</title>
<path fill="none" stroke="black" d="M929.36,-274.23C895.11,-258.98 831.47,-230.65 791.84,-213.01"/>
<polygon fill="black" stroke="black" points="793.28,-209.82 782.72,-208.95 790.44,-216.22 793.28,-209.82"/>
<text text-anchor="middle" x="877.06" y="-236.45" font-family="Times,serif" font-size="14.00">1</text>
</g>
<!-- n36&#45;&gt;n12 -->
<g id="edge66" class="edge">
<title>n36&#45;&gt;n12</title>
<path fill="none" stroke="black" stroke-dasharray="5,2" d="M765.54,-179.02C775.71,-156.89 789.28,-117.12 772,-89.25 748.53,-51.4 698.32,-33.53 663.14,-25.39"/>
<polygon fill="black" stroke="black" points="664.29,-22.05 653.78,-23.39 662.83,-28.9 664.29,-22.05"/>
<text text-anchor="middle" x="784.77" y="-102.58" font-family="Times,serif" font-size="14.00">0</text>
</g>
<!-- n37 -->
<g id="node38" class="node">
<title>n37</title>
<ellipse fill="none" stroke="black" cx="652" cy="-107.25" rx="31.22" ry="18"/>
<text text-anchor="middle" x="652" y="-102.58" font-family="Times,serif" font-size="14.00">d&#39;_2</text>
</g>
<!-- n36&#45;&gt;n37 -->
<g id="edge65" class="edge">
<title>n36&#45;&gt;n37</title>
<path fill="none" stroke="black" d="M739.66,-181.09C722.94,-167.2 697.42,-145.99 678.22,-130.03"/>
<polygon fill="black" stroke="black" points="680.46,-127.35 670.53,-123.65 675.98,-132.73 680.46,-127.35"/>
<text text-anchor="middle" x="718.4" y="-147.2" font-family="Times,serif" font-size="14.00">1</text>
</g>
<!-- n37&#45;&gt;n11 -->
<g id="edge68" class="edge">
<title>n37&#45;&gt;n11</title>
<path fill="none" stroke="black" stroke-dasharray="5,2" d="M622.03,-101.37C530.84,-86.53 256.74,-41.91 154.77,-25.31"/>
<polygon fill="black" stroke="black" points="155.41,-21.87 144.98,-23.72 154.29,-28.78 155.41,-21.87"/>
<text text-anchor="middle" x="436.51" y="-57.95" font-family="Times,serif" font-size="14.00">0</text>
</g>
<!-- n37&#45;&gt;n12 -->
<g id="edge67" class="edge">
<title>n37&#45;&gt;n12</title>
<path fill="none" stroke="black" d="M646.84,-89.3C643.72,-79.07 639.65,-65.78 636,-54 635.33,-51.86 634.64,-49.64 633.95,-47.41"/>
<polygon fill="black" stroke="black" points="637.29,-46.38 630.96,-37.88 630.61,-48.47 637.29,-46.38"/>
<text text-anchor="middle" x="645.82" y="-57.95" font-family="Times,serif" font-size="14.00">1</text>
</g>
<!-- n38&#45;&gt;n12 -->
<g id="edge72" class="edge">
<title>n38&#45;&gt;n12</title>
<path fill="none" stroke="black" stroke-dasharray="5,2" d="M1146.83,-267.46C1150.56,-221.7 1153.21,-97.96 1079,-54 1043.71,-33.1 767.27,-23.08 663.86,-20.04"/>
<polygon fill="black" stroke="black" points="664.03,-16.54 653.93,-19.76 663.83,-23.54 664.03,-16.54"/>
<text text-anchor="middle" x="1146.38" y="-147.2" font-family="Times,serif" font-size="14.00">0</text>
</g>
<!-- n40 -->
<g id="node41" class="node">
<title>n40</title>
<ellipse fill="none" stroke="black" cx="1199" cy="-196.5" rx="27.53" ry="18"/>
<text text-anchor="middle" x="1199" y="-191.82" font-family="Times,serif" font-size="14.00">s_2</text>
</g>
<!-- n38&#45;&gt;n40 -->
<g id="edge71" class="edge">
<title>n38&#45;&gt;n40</title>
<path fill="none" stroke="black" d="M1155.16,-268.34C1163.05,-255.58 1174.14,-237.66 1183.19,-223.04"/>
<polygon fill="black" stroke="black" points="1185.99,-225.17 1188.27,-214.83 1180.04,-221.49 1185.99,-225.17"/>
<text text-anchor="middle" x="1181.34" y="-236.45" font-family="Times,serif" font-size="14.00">1</text>
</g>
<!-- n39&#45;&gt;n8 -->
<g id="edge75" class="edge">
<title>n39&#45;&gt;n8</title>
<path fill="none" stroke="black" d="M1199.38,-274.16C1185.76,-267.72 1168.51,-258.97 1154,-249.75 1139.41,-240.49 1124.15,-228.76 1111.88,-218.76"/>
<polygon fill="black" stroke="black" points="1114.24,-216.18 1104.31,-212.49 1109.78,-221.57 1114.24,-216.18"/>
<text text-anchor="middle" x="1158.5" y="-236.45" font-family="Times,serif" font-size="14.00">1</text>
</g>
<!-- n39&#45;&gt;n12 -->
<g id="edge76" class="edge">
<title>n39&#45;&gt;n12</title>
<path fill="none" stroke="black" stroke-dasharray="5,2" d="M1228.79,-267.85C1240.06,-231.69 1260.76,-145.51 1224,-89.25 1223.02,-87.75 1171.7,-54.57 1170,-54 1075.92,-22.69 771.76,-19.18 663.61,-18.94"/>
<polygon fill="black" stroke="black" points="663.81,-15.44 653.81,-18.93 663.81,-22.44 663.81,-15.44"/>
<text text-anchor="middle" x="1249.07" y="-147.2" font-family="Times,serif" font-size="14.00">0</text>
</g>
<!-- n40&#45;&gt;n17 -->
<g id="edge73" class="edge">
<title>n40&#45;&gt;n17</title>
<path fill="none" stroke="black" d="M1203.72,-178.62C1207.6,-167.39 1214.09,-152.97 1224,-143.25 1234.84,-132.62 1249.48,-124.87 1263.08,-119.41"/>
<polygon fill="black" stroke="black" points="1264.08,-122.77 1272.26,-116.03 1261.66,-116.2 1264.08,-122.77"/>
<text text-anchor="middle" x="1228.5" y="-147.2" font-family="Times,serif" font-size="14.00">1</text>
</g>
<!-- n40&#45;&gt;n24 -->
<g id="edge74" class="edge">
<title>n40&#45;&gt;n24</title>
<path fill="none" stroke="black" stroke-dasharray="5,2" d="M1179.8,-183.57C1172.14,-177.67 1164.15,-169.81 1160,-160.5 1155.89,-151.29 1158.84,-141.28 1163.94,-132.51"/>
<polygon fill="black" stroke="black" points="1166.68,-134.7 1169.5,-124.49 1160.93,-130.72 1166.68,-134.7"/>
<text text-anchor="middle" x="1164.5" y="-147.2" font-family="Times,serif" font-size="14.00">0</text>
</g>
</g>
</svg>
