<?xml version="1.0" encoding="UTF-8" standalone="no"?>
<!DOCTYPE svg PUBLIC "-//W3C//DTD SVG 1.1//EN"
 "http://www.w3.org/Graphics/SVG/1.1/DTD/svg11.dtd">
<!-- Generated by graphviz version 12.2.1 (0)
 -->
<!-- Title: ADD Pages: 1 -->
<svg width="233pt" height="332pt"
 viewBox="0.00 0.00 232.86 332.00" xmlns="http://www.w3.org/2000/svg" xmlns:xlink="http://www.w3.org/1999/xlink">
<g id="graph0" class="graph" transform="scale(1 1) rotate(0) translate(4 328)">
<title>ADD</title>
<polygon fill="white" stroke="none" points="-4,4 -4,-328 228.86,-328 228.86,4 -4,4"/>
<!-- n0 -->
<g id="node1" class="node">
<title>n0</title>
<ellipse fill="none" stroke="black" cx="132.16" cy="-306" rx="27.53" ry="18"/>
<text text-anchor="middle" x="132.16" y="-301.32" font-family="Times,serif" font-size="14.00">s_0</text>
</g>
<!-- n1 -->
<g id="node2" class="node">
<title>n1</title>
<ellipse fill="none" stroke="black" cx="184.16" cy="-162" rx="30.16" ry="18"/>
<text text-anchor="middle" x="184.16" y="-157.32" font-family="Times,serif" font-size="14.00">s&#39;_0</text>
</g>
<!-- n0&#45;&gt;n1 -->
<g id="edge1" class="edge">
<title>n0&#45;&gt;n1</title>
<path fill="none" stroke="black" d="M138.33,-288.15C147.17,-264.03 163.52,-219.36 174.12,-190.43"/>
<polygon fill="black" stroke="black" points="177.33,-191.84 177.48,-181.25 170.76,-189.43 177.33,-191.84"/>
</g>
<!-- n2 -->
<g id="node3" class="node">
<title>n2</title>
<ellipse fill="none" stroke="black" cx="103.16" cy="-234" rx="30.16" ry="18"/>
<text text-anchor="middle" x="103.16" y="-229.32" font-family="Times,serif" font-size="14.00">s&#39;_0</text>
</g>
<!-- n0&#45;&gt;n2 -->
<g id="edge2" class="edge">
<title>n0&#45;&gt;n2</title>
<path fill="none" stroke="black" stroke-dasharray="5,2" d="M125.29,-288.41C122.09,-280.68 118.19,-271.27 114.56,-262.52"/>
<polygon fill="black" stroke="black" points="117.83,-261.25 110.77,-253.35 111.36,-263.93 117.83,-261.25"/>
</g>
<!-- n3 -->
<g id="node4" class="node">
<title>n3</title>
<polygon fill="none" stroke="black" points="209.16,-36 155.16,-36 155.16,0 209.16,0 209.16,-36"/>
<text text-anchor="middle" x="182.16" y="-13.32" font-family="Times,serif" font-size="14.00">0</text>
</g>
<!-- n1&#45;&gt;n3 -->
<g id="edge3" class="edge">
<title>n1&#45;&gt;n3</title>
<path fill="none" stroke="black" d="M198.29,-146.14C206.73,-136.19 216.65,-122.34 221.16,-108 225.96,-92.74 226.15,-87.2 221.16,-72 218.04,-62.48 212.48,-53.27 206.52,-45.26"/>
<polygon fill="black" stroke="black" points="209.4,-43.26 200.41,-37.66 203.94,-47.64 209.4,-43.26"/>
</g>
<!-- n4 -->
<g id="node5" class="node">
<title>n4</title>
<ellipse fill="none" stroke="black" cx="184.16" cy="-90" rx="27.53" ry="18"/>
<text text-anchor="middle" x="184.16" y="-85.33" font-family="Times,serif" font-size="14.00">s_1</text>
</g>
<!-- n1&#45;&gt;n4 -->
<g id="edge4" class="edge">
<title>n1&#45;&gt;n4</title>
<path fill="none" stroke="black" stroke-dasharray="5,2" d="M184.16,-143.7C184.16,-136.41 184.16,-127.73 184.16,-119.54"/>
<polygon fill="black" stroke="black" points="187.66,-119.62 184.16,-109.62 180.66,-119.62 187.66,-119.62"/>
</g>
<!-- n6 -->
<g id="node7" class="node">
<title>n6</title>
<ellipse fill="none" stroke="black" cx="30.16" cy="-90" rx="30.16" ry="18"/>
<text text-anchor="middle" x="30.16" y="-85.33" font-family="Times,serif" font-size="14.00">s&#39;_1</text>
</g>
<!-- n2&#45;&gt;n6 -->
<g id="edge7" class="edge">
<title>n2&#45;&gt;n6</title>
<path fill="none" stroke="black" d="M90.85,-217.37C83.13,-207.12 73.33,-193.22 66.16,-180 55.42,-160.19 45.99,-136.49 39.47,-118.53"/>
<polygon fill="black" stroke="black" points="42.86,-117.6 36.23,-109.34 36.26,-119.93 42.86,-117.6"/>
</g>
<!-- n7 -->
<g id="node8" class="node">
<title>n7</title>
<ellipse fill="none" stroke="black" cx="103.16" cy="-162" rx="27.53" ry="18"/>
<text text-anchor="middle" x="103.16" y="-157.32" font-family="Times,serif" font-size="14.00">s_1</text>
</g>
<!-- n2&#45;&gt;n7 -->
<g id="edge8" class="edge">
<title>n2&#45;&gt;n7</title>
<path fill="none" stroke="black" stroke-dasharray="5,2" d="M103.16,-215.7C103.16,-208.41 103.16,-199.73 103.16,-191.54"/>
<polygon fill="black" stroke="black" points="106.66,-191.62 103.16,-181.62 99.66,-191.62 106.66,-191.62"/>
</g>
<!-- n4&#45;&gt;n3 -->
<g id="edge5" class="edge">
<title>n4&#45;&gt;n3</title>
<path fill="none" stroke="black" d="M183.67,-71.7C183.46,-64.41 183.21,-55.73 182.98,-47.54"/>
<polygon fill="black" stroke="black" points="186.48,-47.51 182.7,-37.62 179.48,-47.71 186.48,-47.51"/>
</g>
<!-- n5 -->
<g id="node6" class="node">
<title>n5</title>
<polygon fill="none" stroke="black" points="135.16,-36 81.16,-36 81.16,0 135.16,0 135.16,-36"/>
<text text-anchor="middle" x="108.16" y="-13.32" font-family="Times,serif" font-size="14.00">0.5</text>
</g>
<!-- n4&#45;&gt;n5 -->
<g id="edge6" class="edge">
<title>n4&#45;&gt;n5</title>
<path fill="none" stroke="black" stroke-dasharray="5,2" d="M168.78,-74.83C159.18,-65.98 146.53,-54.34 135.28,-43.98"/>
<polygon fill="black" stroke="black" points="137.86,-41.59 128.13,-37.39 133.12,-46.74 137.86,-41.59"/>
</g>
<!-- n6&#45;&gt;n3 -->
<g id="edge9" class="edge">
<title>n6&#45;&gt;n3</title>
<path fill="none" stroke="black" d="M53.58,-78.22C77.8,-67.06 116,-49.47 144.47,-36.36"/>
<polygon fill="black" stroke="black" points="145.87,-39.57 153.49,-32.21 142.94,-33.21 145.87,-39.57"/>
</g>
<!-- n6&#45;&gt;n5 -->
<g id="edge10" class="edge">
<title>n6&#45;&gt;n5</title>
<path fill="none" stroke="black" stroke-dasharray="5,2" d="M46.33,-74.5C56.14,-65.69 68.93,-54.21 80.33,-43.97"/>
<polygon fill="black" stroke="black" points="82.48,-46.75 87.58,-37.47 77.8,-41.54 82.48,-46.75"/>
</g>
<!-- n7&#45;&gt;n6 -->
<g id="edge11" class="edge">
<title>n7&#45;&gt;n6</title>
<path fill="none" stroke="black" d="M88.04,-146.5C78.12,-136.99 64.95,-124.36 53.68,-113.55"/>
<polygon fill="black" stroke="black" points="56.25,-111.17 46.61,-106.77 51.41,-116.22 56.25,-111.17"/>
</g>
<!-- n8 -->
<g id="node9" class="node">
<title>n8</title>
<ellipse fill="none" stroke="black" cx="108.16" cy="-90" rx="30.16" ry="18"/>
<text text-anchor="middle" x="108.16" y="-85.33" font-family="Times,serif" font-size="14.00">s&#39;_1</text>
</g>
<!-- n7&#45;&gt;n8 -->
<g id="edge12" class="edge">
<title>n7&#45;&gt;n8</title>
<path fill="none" stroke="black" stroke-dasharray="5,2" d="M104.4,-143.7C104.92,-136.41 105.54,-127.73 106.13,-119.54"/>
<polygon fill="black" stroke="black" points="109.61,-119.84 106.83,-109.61 102.63,-119.34 109.61,-119.84"/>
</g>
<!-- n8&#45;&gt;n3 -->
<g id="edge14" class="edge">
<title>n8&#45;&gt;n3</title>
<path fill="none" stroke="black" stroke-dasharray="5,2" d="M123.86,-74.15C133.1,-65.41 145.03,-54.13 155.68,-44.05"/>
<polygon fill="black" stroke="black" points="157.92,-46.75 162.78,-37.33 153.11,-41.66 157.92,-46.75"/>
</g>
<!-- n8&#45;&gt;n5 -->
<g id="edge13" class="edge">
<title>n8&#45;&gt;n5</title>
<path fill="none" stroke="black" d="M108.16,-71.7C108.16,-64.41 108.16,-55.73 108.16,-47.54"/>
<polygon fill="black" stroke="black" points="111.66,-47.62 108.16,-37.62 104.66,-47.62 111.66,-47.62"/>
</g>
</g>
</svg>
